{"title":"Creationism Vs. Evolution Debate Ken Ham And Bill Nye (2014)","uid":9571081,"size":664604949,"categoryP":"audio","categoryS":"other","magnet":"?xt=urn:btih:935b28c49118be59529389fd106922700787ab1e&amp;dn=Creationism+Vs.+Evolution+Debate+Ken+Ham+And+Bill+Nye+%282014%29&amp;tr=udp%3A%2F%2Ftracker.openbittorrent.com%3A80&amp;tr=udp%3A%2F%2Fopen.demonii.com%3A1337&amp;tr=udp%3A%2F%2Ftracker.coppersurfer.tk%3A6969&amp;tr=udp%3A%2F%2Fexodus.desync.com%3A6969","seeders":1,"leechers":0,"uploader":"BigDogMoya","files":-1,"time":1391635378,"description":"I missed the live viewing so I downloaded from YouTube, compressed, and uploaded here.\n\nThis cuts out the unnecessary countdown in the beginning and the cartoon add for The Creationism Museum only because it was an ADVERTISEMENT (That will be irrelevant for future pirates downloading this)and not for any other reason.\n\n\n&quot;Is creation a viable model of origins in today's modern, scientific era? Leading creation apologist and bestselling Christian author Ken Ham is joined at the Creation Museum by Emmy Award-winning science educator and CEO of the Planetary Society Bill Nye.&quot;\n\n\nScreens:\n &lt;a href=&quot;\nhttp://i.imgur.com/4cbzOO1.png&quot; rel=&quot;nofollow&quot; target=&quot;_NEW&quot;&gt;\nhttp://i.imgur.com/4cbzOO1.png&lt;/a&gt;\n &lt;a href=&quot;\nhttp://i.imgur.com/s72IJqS.png&quot; rel=&quot;nofollow&quot; target=&quot;_NEW&quot;&gt;\nhttp://i.imgur.com/s72IJqS.png&lt;/a&gt;\n &lt;a href=&quot;\nhttp://i.imgur.com/kpfZlcF.png&quot; rel=&quot;nofollow&quot; target=&quot;_NEW&quot;&gt;\nhttp://i.imgur.com/kpfZlcF.png&lt;/a&gt;\n &lt;a href=&quot;\nhttp://i.imgur.com/VzZGWBC.png&quot; rel=&quot;nofollow&quot; target=&quot;_NEW&quot;&gt;\nhttp://i.imgur.com/VzZGWBC.png&lt;/a&gt;\n &lt;a href=&quot;\nhttp://i.imgur.com/uHFo3dj.jpg&quot; rel=&quot;nofollow&quot; target=&quot;_NEW&quot;&gt;\nhttp://i.imgur.com/uHFo3dj.jpg&lt;/a&gt;\n\n\nVideo and Audio Information:\n\n\nVideo\nID                                       : 1\nFormat                                   : AVC\nFormat/Info                              : Advanced Video Codec\nFormat profile                           : &lt;a class=&quot;__cf_email__&quot; href=&quot;/cdn-cgi/l/email-protection&quot; data-cfemail=&quot;dc94b5bbb49c90eff2ee&quot;&gt;[email&amp;#160;protected]&lt;/a&gt;&lt;script cf-hash='f9e31' type=&quot;text/javascript&quot;&gt;\n/* &lt;![CDATA[ */!function(){try{var t=&quot;currentScript&quot;in document?document.currentScript:function(){for(var t=document.getElementsByTagName(&quot;script&quot;),e=t.length;e--;)if(t[e].getAttribute(&quot;cf-hash&quot;))return t[e]}();if(t&amp;&amp;t.previousSibling){var e,r,n,i,c=t.previousSibling,a=c.getAttribute(&quot;data-cfemail&quot;);if(a){for(e=&quot;&quot;,r=parseInt(a.substr(0,2),16),n=2;a.length-n;n+=2)i=parseInt(a.substr(n,2),16)^r,e+=String.fromCharCode(i);e=document.createTextNode(e),c.parentNode.replaceChild(e,c)}}}catch(u){}}();/* ]]&gt; */&lt;/script&gt;\nFormat settings, CABAC                   : Yes\nFormat settings, ReFrames                : 4 frames\nCodec ID                                 : avc1\nCodec ID/Info                            : Advanced Video Coding\nDuration                                 : 2h 32mn\nBit rate                                 : 440 Kbps\nWidth                                    : 1 280 pixels\nHeight                                   : 720 pixels\nDisplay aspect ratio                     : 16:9\nFrame rate mode                          : Constant\nFrame rate                               : 30.000 fps\nColor space                              : YUV\nChroma subsampling                       : 4:2:0\nBit depth                                : 8 bits\nScan type                                : Progressive\nBits/(Pixel*Frame)                       : 0.016\nStream size                              : 479 MiB (76%)\nWriting library                          : x264 core\n\n\nAudio\nID                                       : 2\nFormat                                   : AAC\nFormat/Info                              : Advanced Audio Codec\nFormat profile                           : LC\nCodec ID                                 : 40\nDuration                                 : 2h 32mn\nBit rate mode                            : Constant\nBit rate                                 : 128 Kbps\nChannel(s)                               : 2 channels\nChannel positions                        : Front: L R\nSampling rate                            : 44.1 KHz\nCompression mode                         : Lossy\nStream size                              : 140 MiB (22%)\nLanguage                                 : unk\n","torrent":{"xt":"urn:btih:935b28c49118be59529389fd106922700787ab1e","amp;dn":"Creationism+Vs.+Evolution+Debate+Ken+Ham+And+Bill+Nye+%282014%29","amp;tr":["udp%3A%2F%2Ftracker.openbittorrent.com%3A80","udp%3A%2F%2Fopen.demonii.com%3A1337","udp%3A%2F%2Ftracker.coppersurfer.tk%3A6969","udp%3A%2F%2Fexodus.desync.com%3A6969"],"infoHash":"935b28c49118be59529389fd106922700787ab1e","infoHashBuffer":{"type":"Buffer","data":[147,91,40,196,145,24,190,89,82,147,137,253,16,105,34,112,7,135,171,30]},"announce":[],"urlList":[]}}